<svg width="65" height="65" viewBox="0 0 65 65" fill="none" xmlns="http://www.w3.org/2000/svg">
<g clip-path="url(#clip0_281_6306)">
<path d="M32.1626 48.7069C41.2996 48.7069 48.7069 41.2996 48.7069 32.1626C48.7069 23.0254 41.2996 15.6182 32.1626 15.6182C23.0254 15.6182 15.6182 23.0254 15.6182 32.1626C15.6182 41.2996 23.0254 48.7069 32.1626 48.7069Z" fill="#FFE168"/>
<path d="M33.6424 0H30.6826V11.6114H33.6424V0Z" fill="#FFE168"/>
<path d="M10.462 8.37207L8.36914 10.465L16.5796 18.6754L18.6725 16.5825L10.462 8.37207Z" fill="#FFE168"/>
<path d="M0 30.6826V33.6424H11.6114V30.6826H0Z" fill="#FFE168"/>
<path d="M8.37598 53.8589L10.4689 55.9517L18.6793 47.7413L16.5865 45.6484L8.37598 53.8589Z" fill="#FFE168"/>
<path d="M30.6826 64.3175H33.6422V52.7061H30.6826V64.3175Z" fill="#FFE168"/>
<path d="M53.856 55.9509L55.949 53.8581L47.7385 45.6475L45.6455 47.7405L53.856 55.9509Z" fill="#FFE168"/>
<path d="M64.3175 33.6424V30.6826H52.7061V33.6424H64.3175Z" fill="#FFE168"/>
<path d="M55.948 10.4649L53.855 8.37207L45.6445 16.5826L47.7375 18.6754L55.948 10.4649Z" fill="#FFE168"/>
</g>
<defs>
<clipPath id="clip0_281_6306">
<rect width="65" height="65" fill="white"/>
</clipPath>
</defs>
</svg>
