<svg xmlns="http://www.w3.org/2000/svg" viewBox="0 0 83.73 54.62"><defs><style>.cls-1{fill:#ffe168;}.cls-2,.cls-3{fill:#dadada;stroke:#fff;stroke-miterlimit:10;}.cls-2{stroke-width:2px;}.cls-3{stroke-width:1.48px;}</style></defs><g id="Layer_2" data-name="Layer 2"><g id="Layer_1-2" data-name="Layer 1"><circle class="cls-1" cx="43.8" cy="25.49" r="25.49"/><path class="cls-2" d="M22.12,28.81H5.33c-2.7,0-4-1.23-4.26-3.94-.45-4.35,1.2-7.54,5.16-9.46a2.44,2.44,0,0,0,1.35-2.68,6.85,6.85,0,0,1,3.54-6.51c2.91-1.83,8.13-1.42,10.24,2,1.05,1.73,2,2.46,4.18,1.71,2.53-.85,6.54,1.36,7.7,3.84a8.63,8.63,0,0,1,1.17,4.38c-.11,1.29.87,1.37,1.82,1.41a6.71,6.71,0,0,1,5.85,4.29,8.92,8.92,0,0,1,.1,3.49c-.11,1-.81,1.46-1.92,1.45C34.22,28.79,28.17,28.81,22.12,28.81Z"/><path class="cls-3" d="M58.07,53.85c-7.4,0-14.8,0-22.19,0-2.21,0-2.94-.91-2-2.85S36,47.13,38.44,46.5s4-2,4.17-5C43,36.48,48.46,33,54.23,34.25a8.24,8.24,0,0,0,7.27-1.54c3.74-2.78,9.64-2.09,13,1.06,1.87,1.73,2.21,4,2.46,6.22.21,1.87.52,3.44,2.28,4.56C81.57,46,82.47,48.4,82.91,51c.31,1.89-.18,2.93-2.41,2.9C73,53.79,65.54,53.85,58.07,53.85Z"/></g></g></svg>