<svg xmlns="http://www.w3.org/2000/svg" viewBox="0 0 61.91 45.5"><defs><style>.cls-1{fill:#ffe168;}.cls-2{fill:#dadada;stroke:#fff;stroke-miterlimit:10;stroke-width:2.1px;}</style></defs><g id="Layer_2" data-name="Layer 2"><g id="Layer_1-2" data-name="Layer 1"><circle class="cls-1" cx="16.69" cy="16.69" r="16.69"/><path class="cls-2" d="M32.53,44.42H9c-3.79,0-5.59-1.73-6-5.52-.63-6.11,1.67-10.58,7.23-13.28,1.65-.79,2-2.13,1.9-3.76-.24-4.07,1.65-7,5-9.13,4.08-2.58,11.41-2,14.37,2.86C32.94,18,34.26,19,37.33,18c3.56-1.2,9.19,1.91,10.8,5.38.9,1.93,1.84,3.87,1.65,6.15-.16,1.81,1.22,1.93,2.55,2,3.58.15,7.31,2.88,8.21,6a12.45,12.45,0,0,1,.14,4.9c-.15,1.42-1.13,2.05-2.69,2C49.51,44.39,41,44.42,32.53,44.42Z"/></g></g></svg>