<svg width="90" height="66" viewBox="0 0 90 66" fill="none" xmlns="http://www.w3.org/2000/svg">
<path d="M24.1335 48.0802C37.462 48.0802 48.2669 37.3171 48.2669 24.0401C48.2669 10.7631 37.462 0 24.1335 0C10.8049 0 0 10.7631 0 24.0401C0 37.3171 10.8049 48.0802 24.1335 48.0802Z" fill="#FFE168"/>
<path d="M47.0376 63.9814H13.0136C7.53335 63.9814 4.93058 61.4896 4.33772 56.0305C3.42675 47.2297 6.75251 40.7911 14.7922 36.9021C17.1781 35.7642 17.6841 33.8341 17.5395 31.4862C17.1925 25.6238 19.9254 21.4035 24.7695 18.3355C30.6691 14.6192 41.2681 15.4547 45.5482 22.455C47.6305 25.9263 49.5392 27.3667 53.9783 25.9263C59.126 24.1978 67.2669 28.6775 69.5949 33.6756C70.8963 36.4556 72.2555 39.2499 71.9808 42.534C71.7494 45.1411 73.7449 45.314 75.6681 45.4148C80.8447 45.6309 86.2382 49.5631 87.5396 54.0571C88.0759 56.3732 88.1448 58.7723 87.742 61.1151C87.5251 63.1604 86.1081 64.0679 83.8523 63.9958C71.5904 63.9382 59.2851 63.9814 47.0376 63.9814Z" fill="#DADADA" stroke="white" stroke-width="2.1" stroke-miterlimit="10"/>
</svg>
