<svg width="67" height="58" viewBox="0 0 67 58" fill="none" xmlns="http://www.w3.org/2000/svg">
<g clip-path="url(#clip0_281_6339)">
<mask id="mask0_281_6339" style="mask-type:luminance" maskUnits="userSpaceOnUse" x="0" y="0" width="67" height="58">
<path d="M67 0H0V58H67V0Z" fill="white"/>
</mask>
<g mask="url(#mask0_281_6339)">
<path d="M34.0026 37.2849C24.6789 37.2849 15.3665 37.2849 6.04268 37.2849C5.11214 37.346 4.18777 37.1001 3.42285 36.5882C2.65793 36.076 2.09844 35.3287 1.83714 34.4696C-1.15527 27.0215 0.439138 21.5019 7.23271 16.9688C9.34706 15.5612 9.89007 14.1979 10.306 11.8704C11.5538 4.83236 16.4064 0.343528 24.0087 0.398945C28.6301 0.398945 32.3044 2.93707 34.8115 6.72762C35.0762 7.24032 35.5233 7.64516 36.0722 7.86879C36.6212 8.09245 37.2356 8.12011 37.804 7.94682C44.0544 7.09338 49.2306 8.73375 52.477 14.3863C53.3071 15.759 53.7343 17.3216 53.7133 18.9084C53.7133 21.5574 54.3257 22.2335 57.0986 22.1448C62.6096 21.9675 68.9989 30.6015 65.6715 35.5225C65.3948 36.0762 64.9553 36.5402 64.407 36.8572C63.8589 37.1742 63.2262 37.3306 62.5866 37.3069C53.0547 37.2516 43.5345 37.2849 34.0026 37.2849Z" fill="#ABABAB"/>
<path d="M45.2313 42.4421L44.1933 41.9556C43.2758 41.5259 42.169 41.8909 41.7208 42.7709L40.1186 45.9181C39.6706 46.7981 40.0511 47.86 40.9686 48.2899L42.0066 48.7762C42.9241 49.206 44.0309 48.8409 44.4789 47.9608L46.0811 44.8139C46.5293 43.9338 46.1488 42.872 45.2313 42.4421Z" fill="#57C2DA"/>
<path d="M39.618 51.4861L38.5799 50.9995C37.6625 50.5699 36.5556 50.9348 36.1076 51.8149L34.5054 54.962C34.0572 55.8421 34.4378 56.9039 35.3552 57.3338L36.3933 57.8201C37.3107 58.25 38.4175 57.8848 38.8658 57.0048L40.468 53.8578C40.916 52.9776 40.5354 51.9159 39.618 51.4861Z" fill="#57C2DA"/>
<path d="M22.8993 42.2691L21.8611 41.7828C20.9437 41.353 19.8368 41.7181 19.3888 42.5982L17.7866 45.7451C17.3385 46.6254 17.719 47.6872 18.6364 48.1169L19.6746 48.6034C20.592 49.0331 21.6989 48.6681 22.1469 47.7881L23.749 44.6409C24.1971 43.7609 23.8167 42.699 22.8993 42.2691Z" fill="#57C2DA"/>
<path d="M17.203 51.401L16.1648 50.9147C15.2474 50.4848 14.1405 50.8498 13.6925 51.7298L12.0903 54.877C11.6422 55.757 12.0227 56.8189 12.9401 57.2488L13.9783 57.7351C14.8957 58.1649 16.0026 57.8 16.4506 56.9197L18.0528 53.7728C18.5008 52.8927 18.1204 51.8309 17.203 51.401Z" fill="#57C2DA"/>
</g>
</g>
<defs>
<clipPath id="clip0_281_6339">
<rect width="67" height="58" fill="white"/>
</clipPath>
</defs>
</svg>
