<svg xmlns="http://www.w3.org/2000/svg" viewBox="0 0 183.05 50.25"><defs><style>.cls-1{fill:#0baf4e;isolation:isolate;}.cls-2{fill:#284271;}.cls-3{fill:#fff;}</style></defs><g id="Layer_2" data-name="Layer 2"><g id="Layer_1-2" data-name="Layer 1"><path class="cls-1" d="M.38,14.93l23.84,9.68L22.37,0s-8.8.44-8,11.24C14.42,11.24,6.3,6.06.38,14.93Z"/><path class="cls-1" d="M50.62,14.93,26.79,24.61,28.63,0s8.8.44,8,11.24C36.59,11.24,44.71,6.06,50.62,14.93Z"/><path class="cls-1" d="M7.82,45.83,24.22,26,.2,20.36s-2.23,8.53,8.32,11C8.52,31.33,1.14,37.52,7.82,45.83Z"/><path class="cls-1" d="M39,49.41l-13.34-22L12.42,48.26s7.33,4.9,13.1-4.27C25.52,44,28.94,53,39,49.41Z"/><path class="cls-1" d="M43,45.82,26.6,26l24-5.65s2.23,8.53-8.33,11C42.29,31.33,49.67,37.52,43,45.82Z"/><path class="cls-2" d="M61.78,11H58.66V23.52h4.78V8.45h2.7V16.2h2V8.45h2.7V28h-2.7V18.43h-2V28h-2.7V25.69H58.27A2.31,2.31,0,0,1,56.48,25,2.62,2.62,0,0,1,56,23.25V8.86h5.83Z"/><path class="cls-2" d="M84.44,8.86v2.19H80.91a8.66,8.66,0,0,0,1.43,5,8.76,8.76,0,0,0,3.06,2.74l-1.22,1.75a16,16,0,0,1-2.63-1.79,9.51,9.51,0,0,1-2-2.23,9.17,9.17,0,0,1-2,2.23A17.05,17.05,0,0,1,75,20.52l-1.1-1.75a7.89,7.89,0,0,0,3-2.74,9.15,9.15,0,0,0,1.31-5H74.87V8.86Zm-6,16.7h11v2.19H78.14a2.78,2.78,0,0,1-1.86-.5,2.18,2.18,0,0,1-.53-1.65V21.47h2.7Zm10.84-2.88h-2.7V15.32h-3V13.11h3V8.45h2.7Z"/><path class="cls-2" d="M99.21,8.61v7.1A11.25,11.25,0,0,0,101,21.35,16.72,16.72,0,0,0,103.79,25l-1.68,1.56a12.13,12.13,0,0,1-4.2-7,11.86,11.86,0,0,1-1.82,4.2,13,13,0,0,1-2.51,2.78L92.14,25a13.48,13.48,0,0,0,2.65-3.55,12,12,0,0,0,1.72-5.74V8.61ZM108,8.45V28h-2.7V8.45Z"/><path class="cls-2" d="M121.41,8.86V19.54h-6.92a2.24,2.24,0,0,1-1.7-.59,2.31,2.31,0,0,1-.55-1.66V8.86Zm-5.57,16.7h11v2.19H115.53a2.82,2.82,0,0,1-1.86-.5,2.22,2.22,0,0,1-.53-1.65V21.47h2.7Zm-.91-14.51v6.38h3.8V11.05Zm11.76-2.6V22.5H124v-14Z"/><path class="cls-2" d="M134.23,10V8.35h2.7V10h3.65v2.19h-3.65a7.26,7.26,0,0,0,1.22,4.26,6.65,6.65,0,0,0,3.13,2.39l-1.21,1.69a9.59,9.59,0,0,1-2.74-1.79,7.26,7.26,0,0,1-1.81-2.35,7.22,7.22,0,0,1-1.86,2.37,10,10,0,0,1-2.79,1.79l-1-1.71a6.93,6.93,0,0,0,3-2.37,7,7,0,0,0,1.32-4.28h-3.65V10Zm.31,15.53h11v2.19H134.23a2.78,2.78,0,0,1-1.86-.5,2.18,2.18,0,0,1-.53-1.65V21.47h2.7Zm10.84-2.81h-2.7V16.22h-3.07V14.05h3.07V8.47h2.7Z"/><path class="cls-2" d="M164.83,20.25h-6.06v3.19h-2.69V20.25H149V18h15.81Zm-.9-11.39v7.21H152.14a2.21,2.21,0,0,1-1.68-.6,2.3,2.3,0,0,1-.55-1.67V8.86Zm-11.32,16.7h11.32v2.19H152.3a2.82,2.82,0,0,1-1.86-.5,2.22,2.22,0,0,1-.53-1.65V21.83h2.7Zm0-14.51v2.83h8.62V11.05Z"/><path class="cls-2" d="M174,11h-3.13V23.52h4.79V8.45h2.7V16.2h2V8.45h2.7V28h-2.7V18.43h-2V28h-2.7V25.69h-5.17a2.31,2.31,0,0,1-1.79-.65,2.62,2.62,0,0,1-.53-1.79V8.86H174Z"/><path class="cls-3" d="M59.31,34H62a4.42,4.42,0,0,1,2.33.43,1.76,1.76,0,0,1,.59,1.52v5.11a2.18,2.18,0,0,1-.62,1.76,3.89,3.89,0,0,1-2.32.51H59.31ZM60.8,42.1q1.08,0,1.47,0a2,2,0,0,0,.78-.21.74.74,0,0,0,.31-.5,5.15,5.15,0,0,0,.07-1V36.51a3.34,3.34,0,0,0-.07-.79.67.67,0,0,0-.32-.41,2.24,2.24,0,0,0-.79-.15l-1.45,0Z"/><path class="cls-3" d="M70.39,34l1.89,9.34H70.76l-.48-2.39h-2l-.47,2.39H66.24L68.13,34ZM68.5,39.66H70l-.75-4Z"/><path class="cls-3" d="M73.47,34h4.12v1.22H75v2.71h2.44v1.17H75v3h2.69v1.24h-4.2Z"/><path class="cls-3" d="M81.58,34v7.58a2.58,2.58,0,0,1-.24,1.23,1.07,1.07,0,0,1-1,.52h-1.6V42.09h.68c.29,0,.47-.08.55-.23a2.12,2.12,0,0,0,.08-.74V34Z"/><path class="cls-3" d="M83.16,34h4.12v1.22H84.67v2.71h2.45v1.17H84.67v3h2.69v1.24h-4.2Z"/><path class="cls-3" d="M94.22,40.33a4.32,4.32,0,0,1-.43,2.09,3.12,3.12,0,0,1-4.76,0,4.11,4.11,0,0,1-.42-2.09V36.88a3.74,3.74,0,0,1,.42-2,2.53,2.53,0,0,1,2.38-1.07,2.57,2.57,0,0,1,2.38,1.07,4,4,0,0,1,.43,2Zm-1.5-3.95a1.34,1.34,0,0,0-.31-.91,1.21,1.21,0,0,0-1-.43,1.23,1.23,0,0,0-1,.45,1.42,1.42,0,0,0-.29.89v4.38a1.84,1.84,0,0,0,.28,1,1.3,1.3,0,0,0,2.09,0,2.05,2.05,0,0,0,.24-1.06Z"/><path class="cls-3" d="M101.05,34v9.34H98.9l-1.79-7.1v7.1H95.6V34h2l1.89,7.11V34Z"/><path class="cls-3" d="M112.19,40.33a4.32,4.32,0,0,1-.43,2.09,3.12,3.12,0,0,1-4.76,0,4.11,4.11,0,0,1-.42-2.09V36.88a3.93,3.93,0,0,1,.42-2,3.18,3.18,0,0,1,4.76,0,3.85,3.85,0,0,1,.43,2Zm-1.49-3.95a1.39,1.39,0,0,0-.31-.91,1.24,1.24,0,0,0-1-.43,1.21,1.21,0,0,0-1,.45,1.36,1.36,0,0,0-.29.89v4.38a1.76,1.76,0,0,0,.28,1,1.15,1.15,0,0,0,1,.53,1.13,1.13,0,0,0,1-.53,2,2,0,0,0,.25-1.06Z"/><path class="cls-3" d="M113.69,34h3a3.44,3.44,0,0,1,2,.39,1.82,1.82,0,0,1,.48,1.48v.78a2,2,0,0,1-.24,1.14,1.85,1.85,0,0,1-1,.51,1.77,1.77,0,0,1,1.14.63,2.27,2.27,0,0,1,.32,1.35v.88a2.21,2.21,0,0,1-.56,1.79,3.57,3.57,0,0,1-2,.39h-3.09Zm1.5,3.84.46,0h.7a3.17,3.17,0,0,0,.71-.05.66.66,0,0,0,.39-.2,1.11,1.11,0,0,0,.16-.47c0-.16,0-.44,0-.82a1.79,1.79,0,0,0-.09-.66.55.55,0,0,0-.31-.34,2,2,0,0,0-.69-.13c-.2,0-.6,0-1.19,0h-.18Zm0,4.29h.41l1.16,0a1.82,1.82,0,0,0,.66-.14.59.59,0,0,0,.33-.36,2.12,2.12,0,0,0,.08-.67V40a2,2,0,0,0-.08-.64.64.64,0,0,0-.36-.32,2.88,2.88,0,0,0-.78-.12c-.23,0-.68,0-1.36,0h-.06Z"/><path class="cls-3" d="M126.2,36.81h-1.54V36a.87.87,0,0,0-1.1-1,1.32,1.32,0,0,0-1,.29,1.36,1.36,0,0,0-.18.81,2.38,2.38,0,0,0,0,.43.84.84,0,0,0,.16.33,2.09,2.09,0,0,0,.42.34c.16.1.41.26.77.46l.49.27c.5.28.84.49,1,.62a3,3,0,0,1,.66.58,1.87,1.87,0,0,1,.36.75,4.89,4.89,0,0,1,.11,1.13,2.52,2.52,0,0,1-.65,1.93,4.14,4.14,0,0,1-4.34.07,1.9,1.9,0,0,1-.5-1.47V40.22h1.52v1a1.38,1.38,0,0,0,.18.82,1.23,1.23,0,0,0,1,.31,1.3,1.3,0,0,0,1-.35,1.19,1.19,0,0,0,.24-.81,1.74,1.74,0,0,0-.33-1.1,6.4,6.4,0,0,0-1.65-1.22,7.32,7.32,0,0,1-1.56-1.12,2.41,2.41,0,0,1-.48-1.6,2.27,2.27,0,0,1,.65-1.77,2.89,2.89,0,0,1,2-.59,4.41,4.41,0,0,1,2.08.38,1.1,1.1,0,0,1,.63,1Z"/><path class="cls-3" d="M127.86,34H132v1.22h-2.61v2.71h2.45v1.17h-2.45v3h2.7v1.24h-4.2Z"/><path class="cls-3" d="M133.48,34h2.3a6.28,6.28,0,0,1,2.23.29,1.21,1.21,0,0,1,.79,1.2v1.27a2.23,2.23,0,0,1-.21,1.13,1.64,1.64,0,0,1-1.12.58,2.94,2.94,0,0,1,.76.42,1.24,1.24,0,0,1,.4.49,1.65,1.65,0,0,1,.15.59,6.69,6.69,0,0,1,0,.73v2.64h-1.52V40a2.55,2.55,0,0,0,0-.51.55.55,0,0,0-.25-.33,1.85,1.85,0,0,0-.68-.17A11.2,11.2,0,0,0,135,39v4.38h-1.5ZM135,37.8h1.36a3.43,3.43,0,0,0,.62-.07.41.41,0,0,0,.25-.21,1,1,0,0,0,.06-.4V35.87a.86.86,0,0,0-.07-.42.39.39,0,0,0-.28-.2,2.4,2.4,0,0,0-.67-.08H135Z"/><path class="cls-3" d="M146.41,34l-1.92,9.34H142L140.08,34h1.53l1.61,8,.12-.6c.23-1.1.39-1.91.5-2.45.19-.93.37-1.79.52-2.57l.47-2.37Z"/><path class="cls-3" d="M151.49,34l1.89,9.34h-1.51l-.49-2.39h-2l-.47,2.39h-1.53l1.9-9.34Zm-1.89,5.67h1.53l-.76-4Z"/><path class="cls-3" d="M159.45,34V35.2h-2v8.13h-1.54V35.2h-1.7V34Z"/><path class="cls-3" d="M166.09,40.33a4.32,4.32,0,0,1-.43,2.09,3.12,3.12,0,0,1-4.76,0,4.11,4.11,0,0,1-.42-2.09V36.88a3.93,3.93,0,0,1,.42-2,3.18,3.18,0,0,1,4.76,0,3.85,3.85,0,0,1,.43,2Zm-1.49-3.95a1.39,1.39,0,0,0-.31-.91,1.24,1.24,0,0,0-1-.43,1.21,1.21,0,0,0-1,.45,1.36,1.36,0,0,0-.29.89v4.38a1.76,1.76,0,0,0,.28,1,1.15,1.15,0,0,0,1,.53,1.13,1.13,0,0,0,1-.53,2,2,0,0,0,.25-1.06Z"/><path class="cls-3" d="M167.56,34h2.31a6.28,6.28,0,0,1,2.23.29,1.21,1.21,0,0,1,.79,1.2v1.27a2.23,2.23,0,0,1-.21,1.13,1.64,1.64,0,0,1-1.12.58,2.94,2.94,0,0,1,.76.42,1.33,1.33,0,0,1,.4.49,1.65,1.65,0,0,1,.15.59,6.69,6.69,0,0,1,0,.73v2.64h-1.52V40a1.83,1.83,0,0,0-.05-.51.5.5,0,0,0-.24-.33,1.85,1.85,0,0,0-.68-.17,11.32,11.32,0,0,0-1.33-.06v4.38h-1.51Zm1.51,3.81h1.36a3.18,3.18,0,0,0,.61-.07.41.41,0,0,0,.26-.21,1,1,0,0,0,.06-.4V35.87a1,1,0,0,0-.07-.42.39.39,0,0,0-.28-.2,2.4,2.4,0,0,0-.67-.08h-1.27Z"/><path class="cls-3" d="M179.71,34l-2.14,6v3.31h-1.5V40L174,34h1.55q.22.76.51,1.77l.45,1.61.31,1.1L178.17,34Z"/></g></g></svg>