<svg width="86" height="47" viewBox="0 0 86 47" fill="none" xmlns="http://www.w3.org/2000/svg">
<g clip-path="url(#clip0_281_6316)">
<mask id="mask0_281_6316" style="mask-type:luminance" maskUnits="userSpaceOnUse" x="0" y="0" width="86" height="47">
<path d="M86 0H0V47H86V0Z" fill="white"/>
</mask>
<g mask="url(#mask0_281_6316)">
<path d="M31.7354 32.5803C23.8334 32.5803 15.9215 32.5803 8.00978 32.5803C7.22017 32.6344 6.43585 32.4171 5.78679 31.9644C5.13772 31.5119 4.66287 30.8512 4.44115 30.0922C1.95095 23.48 3.25492 18.6017 9.02943 14.5953C10.8137 13.3512 11.2844 12.1463 11.6373 10.0892C12.6961 3.86893 16.804 -0.0983353 23.2549 -0.0493563C27.1766 -0.0493563 30.3038 2.19387 32.4215 5.54401C32.648 5.9979 33.0293 6.35596 33.4968 6.55357C33.9643 6.75116 34.4868 6.77528 34.9705 6.62154C40.2647 5.86727 44.657 7.31704 47.4119 12.3129C48.1191 13.5253 48.485 14.9063 48.4707 16.3095C48.4707 18.6507 48.9804 19.2483 51.3431 19.1699C56.0197 19.0132 61.4314 26.644 58.6078 30.9933C58.374 31.4834 58.0013 31.8941 57.5359 32.1746C57.0707 32.455 56.5331 32.5926 55.9902 32.5704C47.9117 32.5803 39.8235 32.5803 31.7354 32.5803Z" fill="#ABABAB"/>
<path d="M57.9909 40.6516C50.0791 40.6516 42.1773 40.6516 34.2653 40.6516C33.4759 40.7056 32.6915 40.4884 32.0423 40.0359C31.3931 39.5831 30.9186 38.9225 30.6968 38.1635C28.1968 31.5513 29.5105 26.673 35.2751 22.6666C37.0694 21.4225 37.5302 20.2176 37.883 18.1605C38.9515 11.9402 43.0597 7.97295 49.5105 8.02193C53.4321 8.02193 56.5497 10.2652 58.6674 13.6153C58.8939 14.0692 59.2751 14.4273 59.7427 14.6249C60.2099 14.8225 60.7327 14.8466 61.2164 14.6929C66.5202 13.9386 70.9125 15.3883 73.6674 20.3842C74.3718 21.5973 74.7343 22.9784 74.7163 24.3808C74.7163 26.7221 75.236 27.3195 77.589 27.2412C82.2653 27.0845 87.6869 34.7152 84.8635 39.0549C84.6311 39.5468 84.2589 39.9596 83.7935 40.2416C83.328 40.5239 82.7899 40.6631 82.2457 40.6417C74.2066 40.6221 66.079 40.6516 57.9909 40.6516Z" fill="#ABABAB" stroke="#E8E8E8" stroke-width="0.75" stroke-miterlimit="10"/>
<path d="M28.8727 46.5987C20.961 46.5987 13.0591 46.5987 5.14731 46.5987C4.35734 46.6546 3.57208 46.4379 2.92262 45.9851C2.27318 45.5324 1.79879 44.8707 1.57866 44.1106C-0.921338 37.4985 0.392309 32.6201 6.15701 28.6137C7.95112 27.3697 8.41195 26.1647 8.76489 24.1076C9.83351 17.8971 13.9413 13.9298 20.3923 13.969C24.3139 13.969 27.4316 16.2221 29.5492 19.5722C29.7757 20.0257 30.1575 20.3829 30.6253 20.5789C31.0931 20.7748 31.6158 20.7965 32.0982 20.6399C37.4021 19.8955 41.7943 21.3355 44.5492 26.341C45.2531 27.5509 45.6156 28.9286 45.5981 30.3279C45.5981 32.6789 46.1178 33.2667 48.4708 33.198C53.1471 33.0317 58.5688 40.6624 55.7454 45.0117C55.5129 45.5036 55.1408 45.9165 54.6753 46.1987C54.2099 46.4807 53.6717 46.6199 53.1276 46.5987C45.0394 46.5792 36.9512 46.5987 28.8727 46.5987Z" fill="#ABABAB" stroke="#E8E8E8" stroke-width="0.75" stroke-miterlimit="10"/>
</g>
</g>
<defs>
<clipPath id="clip0_281_6316">
<rect width="86" height="47" fill="white"/>
</clipPath>
</defs>
</svg>
