<svg width="100" height="67" viewBox="0 0 100 67" fill="none" xmlns="http://www.w3.org/2000/svg">
<g clip-path="url(#clip0_281_6324)">
<path d="M52.3113 62.535C69.1244 62.535 82.7544 48.5361 82.7544 31.2676C82.7544 13.9989 69.1244 0 52.3113 0C35.498 0 21.8682 13.9989 21.8682 31.2676C21.8682 48.5361 35.498 62.535 52.3113 62.535Z" fill="#FFE168"/>
<path d="M26.4187 35.3397H6.36625C3.14158 35.3397 1.58897 33.8309 1.27845 30.5067C0.74101 25.1707 2.71163 21.2577 7.44112 18.9025C8.02802 18.6173 8.5054 18.139 8.7975 17.5434C9.08958 16.9479 9.17968 16.2692 9.05345 15.615C8.9383 14.0077 9.27566 12.4003 10.0253 10.9844C10.7749 9.56852 11.9052 8.40394 13.2813 7.62952C16.7568 5.38474 22.9911 5.88765 25.5111 10.0828C26.7651 12.2049 27.8997 13.1004 30.5033 12.1804C33.5248 11.1377 38.3141 13.8487 39.6994 16.8908C40.6233 18.5218 41.1056 20.3767 41.0969 22.2635C40.9656 23.8459 42.1359 23.944 43.2705 23.9931C44.8038 24.0903 46.2774 24.638 47.5161 25.5709C48.7548 26.504 49.7061 27.7829 50.2574 29.2556C50.5712 30.6605 50.612 32.1155 50.3766 33.5364C50.2453 34.7633 49.4094 35.3273 48.0835 35.3152C40.87 35.3152 33.6443 35.3397 26.4187 35.3397Z" fill="#DADADA" stroke="white" stroke-width="1.2" stroke-miterlimit="10"/>
<path d="M69.3539 66.0554C60.5159 66.0554 51.6782 66.0554 42.8521 66.0554C40.2126 66.0554 39.3408 64.9391 40.4636 62.5596C41.5862 60.1798 42.9954 57.8124 45.9095 57.0395C48.8236 56.2667 50.6869 54.5863 50.8898 50.9062C51.3557 44.7484 57.8767 40.4797 64.7677 42.013C66.258 42.4186 67.82 42.4591 69.3282 42.1308C70.8364 41.8027 72.2485 41.1152 73.4505 40.1238C77.9172 36.7138 84.9636 37.5601 88.9764 41.4242C91.21 43.5463 91.6159 46.3309 91.9146 49.0539C92.1654 51.3479 92.5357 53.2736 94.6377 54.6476C97.4203 56.4262 98.4951 59.3701 99.0208 62.5596C99.391 64.8778 98.8057 66.1536 96.1423 66.1168C87.1852 65.9817 78.2754 66.0554 69.3539 66.0554Z" fill="#DADADA" stroke="white" stroke-width="1.2" stroke-miterlimit="10"/>
</g>
<defs>
<clipPath id="clip0_281_6324">
<rect width="100" height="67" fill="white"/>
</clipPath>
</defs>
</svg>
