<svg width="74" height="67" viewBox="0 0 74 67" fill="none" xmlns="http://www.w3.org/2000/svg">
<path d="M37.5625 42.8302C27.4193 42.8302 17.2887 42.8302 7.14555 42.8302C6.13323 42.8995 5.12763 42.6207 4.2955 42.04C3.46337 41.4594 2.85471 40.6117 2.57044 39.6377C-0.684933 31.1913 1.04959 24.9319 8.44016 19.7912C10.7403 18.195 11.331 16.649 11.7835 14.0095C13.141 6.02818 18.4199 0.93773 26.6903 1.00058C31.7179 1.00058 35.7149 3.87888 38.4424 8.17747C38.7303 8.75888 39.2169 9.21797 39.814 9.47159C40.4112 9.72521 41.0794 9.7566 41.6977 9.56006C48.4976 8.59225 54.1285 10.4525 57.6604 16.8627C58.5634 18.4193 59.0281 20.1914 59.0052 21.9908C59.0052 24.9948 59.6714 25.7615 62.688 25.6609C68.6834 25.4598 75.634 35.2511 72.0142 40.8317C71.7131 41.4596 71.235 41.9857 70.6387 42.3452C70.0424 42.7048 69.354 42.8821 68.6582 42.8553C58.2888 42.7925 47.932 42.8302 37.5625 42.8302Z" fill="#ABABAB" stroke="#E8E8E8" stroke-width="0.72" stroke-miterlimit="10"/>
<path d="M49.7773 48.6792L48.6479 48.1276C47.6499 47.6402 46.4457 48.0542 45.9583 49.0522L44.2153 52.6211C43.7279 53.6191 44.1418 54.8233 45.1398 55.3107L46.2692 55.8622C47.2672 56.3497 48.4714 55.9357 48.9588 54.9377L50.7018 51.3688C51.1892 50.3708 50.7753 49.1666 49.7773 48.6792Z" fill="#57C2DA"/>
<path d="M41.2031 48.6792L40.0737 48.1276C39.0756 47.6402 37.8715 48.0542 37.3841 49.0522L35.6411 52.6211C35.1537 53.6191 35.5676 54.8233 36.5656 55.3107L37.695 55.8622C38.693 56.3497 39.8972 55.9357 40.3846 54.9377L42.1276 51.3688C42.615 50.3708 42.2011 49.1666 41.2031 48.6792Z" fill="#57C2DA"/>
<path d="M33.6611 48.6792L32.5317 48.1276C31.5337 47.6402 30.3295 48.0542 29.8421 49.0522L28.0991 52.6211C27.6117 53.6191 28.0256 54.8233 29.0236 55.3107L30.153 55.8622C31.151 56.3497 32.3552 55.9357 32.8426 54.9377L34.5856 51.3688C35.073 50.3708 34.6591 49.1666 33.6611 48.6792Z" fill="#57C2DA"/>
<path d="M17.3212 48.6792L16.1918 48.1276C15.1938 47.6402 13.9896 48.0542 13.5022 49.0522L11.7592 52.6211C11.2718 53.6191 11.6858 54.8233 12.6838 55.3107L13.8132 55.8622C14.8112 56.3497 16.0153 55.9357 16.5027 54.9377L18.2457 51.3688C18.7331 50.3708 18.3192 49.1666 17.3212 48.6792Z" fill="#57C2DA"/>
<path d="M57.5429 48.6792L56.4135 48.1276C55.4155 47.6402 54.2113 48.0542 53.7239 49.0522L51.9809 52.6211C51.4935 53.6191 51.9074 54.8233 52.9054 55.3107L54.0349 55.8622C55.0329 56.3497 56.237 55.9357 56.7244 54.9377L58.4674 51.3688C58.9548 50.3708 58.5409 49.1666 57.5429 48.6792Z" fill="#57C2DA"/>
<path d="M43.6708 58.9341L42.5414 58.3825C41.5434 57.8951 40.3393 58.309 39.8518 59.307L38.1089 62.876C37.6214 63.874 38.0354 65.0781 39.0334 65.5655L40.1628 66.1171C41.1608 66.6045 42.3649 66.1906 42.8524 65.1926L44.5953 61.6237C45.0828 60.6257 44.6688 59.4215 43.6708 58.9341Z" fill="#57C2DA"/>
<path d="M35.0966 58.9341L33.9672 58.3825C32.9692 57.8951 31.765 58.309 31.2776 59.307L29.5346 62.876C29.0472 63.874 29.4612 65.0781 30.4592 65.5655L31.5886 66.1171C32.5866 66.6045 33.7907 66.1906 34.2781 65.1926L36.0211 61.6237C36.5085 60.6257 36.0946 59.4215 35.0966 58.9341Z" fill="#57C2DA"/>
<path d="M27.5546 58.9341L26.4252 58.3825C25.4272 57.8951 24.223 58.309 23.7356 59.307L21.9926 62.876C21.5052 63.874 21.9192 65.0781 22.9172 65.5655L24.0466 66.1171C25.0446 66.6045 26.2487 66.1906 26.7361 65.1926L28.4791 61.6237C28.9665 60.6257 28.5526 59.4215 27.5546 58.9341Z" fill="#57C2DA"/>
<path d="M11.2148 58.9341L10.0854 58.3825C9.08736 57.8951 7.8832 58.309 7.39579 59.307L5.6528 62.876C5.16539 63.874 5.57931 65.0781 6.57732 65.5655L7.70673 66.1171C8.70473 66.6045 9.90889 66.1906 10.3963 65.1926L12.1393 61.6237C12.6267 60.6257 12.2128 59.4215 11.2148 58.9341Z" fill="#57C2DA"/>
<path d="M51.4365 58.9341L50.307 58.3825C49.309 57.8951 48.1049 58.309 47.6175 59.307L45.8745 62.876C45.3871 63.874 45.801 65.0781 46.799 65.5655L47.9284 66.1171C48.9264 66.6045 50.1306 66.1906 50.618 65.1926L52.361 61.6237C52.8484 60.6257 52.4345 59.4215 51.4365 58.9341Z" fill="#57C2DA"/>
<path d="M25.4833 48.4829L24.3539 47.9314C23.3559 47.4439 22.1518 47.8579 21.6643 48.8559L19.9214 52.4248C19.4339 53.4228 19.8479 54.627 20.8459 55.1144L21.9753 55.666C22.9733 56.1534 24.1775 55.7394 24.6649 54.7414L26.4079 51.1725C26.8953 50.1745 26.4813 48.9703 25.4833 48.4829Z" fill="#57C2DA"/>
<path d="M19.2861 58.8384L18.1567 58.2868C17.1587 57.7994 15.9545 58.2133 15.4671 59.2113L13.7241 62.7803C13.2367 63.7783 13.6506 64.9824 14.6486 65.4698L15.778 66.0214C16.776 66.5088 17.9802 66.0949 18.4676 65.0969L20.2106 61.528C20.698 60.53 20.2841 59.3258 19.2861 58.8384Z" fill="#57C2DA"/>
</svg>
