<svg xmlns="http://www.w3.org/2000/svg" viewBox="0 0 57.99 52.33"><defs><style>.cls-1{fill:#ababab;stroke:#e8e8e8;stroke-miterlimit:10;stroke-width:0.72px;}.cls-2{fill:#57c2da;}</style></defs><g id="Layer_2" data-name="Layer 2"><g id="Layer_1-2" data-name="Layer 1"><path class="cls-1" d="M29.43,33.64c-8.07,0-16.13,0-24.2,0a3.54,3.54,0,0,1-3.64-2.54C-1,24.38.38,19.4,6.26,15.31c1.83-1.27,2.3-2.5,2.66-4.6C10,4.36,14.2.31,20.78.36c4,0,7.18,2.29,9.35,5.71a2.16,2.16,0,0,0,2.59,1.1c5.41-.77,9.89.71,12.7,5.81a7.93,7.93,0,0,1,1.07,4.08c0,2.39.53,3,2.93,2.92,4.77-.16,10.3,7.63,7.42,12.07a2.84,2.84,0,0,1-2.67,1.61C45.92,33.61,37.68,33.64,29.43,33.64Z"/><rect class="cls-2" x="35.21" y="37.75" width="4.2" height="6.36" rx="1.6" transform="translate(21.74 -12.22) rotate(26.03)"/><rect class="cls-2" x="30.35" y="45.91" width="4.2" height="6.36" rx="1.6" transform="translate(24.83 -9.26) rotate(26.03)"/><rect class="cls-2" x="15.88" y="37.59" width="4.2" height="6.36" rx="1.6" transform="translate(19.71 -3.75) rotate(26.03)"/><rect class="cls-2" x="10.95" y="45.84" width="4.2" height="6.36" rx="1.6" transform="translate(22.83 -0.76) rotate(26.03)"/></g></g></svg>