<svg width="66" height="60" viewBox="0 0 66 60" fill="none" xmlns="http://www.w3.org/2000/svg">
<path d="M33.1076 36.7451C23.9228 36.7451 14.7495 36.7451 5.56481 36.7451C4.64816 36.806 3.73758 36.5611 2.98408 36.0509C2.23058 35.5409 1.67944 34.7962 1.42204 33.9407C-1.52571 26.5211 0.0449037 21.0226 6.73708 16.5069C8.81987 15.1046 9.35477 13.7466 9.7645 11.428C10.9937 4.41693 15.7738 -0.0546998 23.2628 0.000505375C27.8153 0.000505375 31.4345 2.52891 33.9042 6.30493C34.1649 6.81567 34.6056 7.21896 35.1463 7.44173C35.6869 7.66453 36.2921 7.69209 36.852 7.51944C43.0091 6.66929 48.1081 8.30338 51.3062 13.9343C52.1239 15.3017 52.5446 16.8584 52.5239 18.439C52.5239 21.0778 53.1271 21.7514 55.8587 21.663C61.2876 21.4864 67.5814 30.0873 64.3036 34.9896C64.031 35.5411 63.598 36.0033 63.0582 36.3191C62.5183 36.6349 61.8948 36.7907 61.2647 36.7671C51.8751 36.712 42.497 36.7451 33.1076 36.7451Z" fill="#ABABAB"/>
<path d="M44.1686 41.8829L43.1461 41.3983C42.2423 40.9703 41.152 41.3338 40.7107 42.2105L39.1324 45.3456C38.6911 46.2223 39.0657 47.28 39.9695 47.708L40.9923 48.1927C41.8958 48.6209 42.9864 48.2571 43.4277 47.3805L45.006 44.2454C45.4473 43.3687 45.0724 42.3109 44.1686 41.8829Z" fill="#57C2DA"/>
<path d="M38.6396 50.8917L37.6168 50.407C36.713 49.979 35.6227 50.3426 35.1814 51.2193L33.6031 54.3544C33.1618 55.231 33.5364 56.2888 34.4402 56.7168L35.463 57.2015C36.3665 57.6297 37.4571 57.2659 37.8984 56.3893L39.4767 53.2542C39.918 52.3775 39.5431 51.3197 38.6396 50.8917Z" fill="#57C2DA"/>
<path d="M22.1697 41.71L21.1471 41.2255C20.2434 40.7973 19.153 41.1609 18.7117 42.0378L17.1334 45.1726C16.692 46.0493 17.0668 47.1071 17.9705 47.5353L18.9932 48.0198C19.8969 48.448 20.9873 48.0844 21.4286 47.2078L23.007 44.0727C23.4483 43.196 23.0735 42.1382 22.1697 41.71Z" fill="#57C2DA"/>
<path d="M16.5584 50.8077L15.5358 50.3231C14.6321 49.8951 13.5417 50.2586 13.1003 51.1353L11.522 54.2704C11.0807 55.1471 11.4555 56.2048 12.3592 56.6331L13.3819 57.1175C14.2856 57.5457 15.3759 57.1819 15.8173 56.3053L17.3956 53.1704C17.8369 52.2937 17.4621 51.2359 16.5584 50.8077Z" fill="#57C2DA"/>
<path d="M11.9004 46.5658C11.9004 47.123 11.4527 47.5759 10.9004 47.5759C10.3481 47.5759 9.90039 47.123 9.90039 46.5658C9.90039 46.0085 10.3481 45.5557 10.9004 45.5557C11.4527 45.5557 11.9004 46.0085 11.9004 46.5658Z" fill="#F9F9F9" stroke="white"/>
<path d="M31.7002 46.5658C31.7002 47.123 31.2519 47.5759 30.7002 47.5759C30.1485 47.5759 29.7002 47.123 29.7002 46.5658C29.7002 46.0085 30.1485 45.5557 30.7002 45.5557C31.2519 45.5557 31.7002 46.0085 31.7002 46.5658Z" fill="#F9F9F9" stroke="white"/>
<path d="M53.7002 44.3431C53.7002 44.9003 53.2518 45.3532 52.7002 45.3532C52.1485 45.3532 51.7002 44.9003 51.7002 44.3431C51.7002 43.7859 52.1485 43.333 52.7002 43.333C53.2518 43.333 53.7002 43.7859 53.7002 44.3431Z" fill="#F9F9F9" stroke="white"/>
<path d="M22.9004 53.2327C22.9004 53.79 22.4527 54.2429 21.9004 54.2429C21.3481 54.2429 20.9004 53.79 20.9004 53.2327C20.9004 52.6755 21.3481 52.2227 21.9004 52.2227C22.4527 52.2227 22.9004 52.6755 22.9004 53.2327Z" fill="#F9F9F9" stroke="white"/>
<path d="M47.0996 53.2327C47.0996 53.79 46.6513 54.2429 46.0996 54.2429C45.5479 54.2429 45.0996 53.79 45.0996 53.2327C45.0996 52.6755 45.5479 52.2227 46.0996 52.2227C46.6513 52.2227 47.0996 52.6755 47.0996 53.2327Z" fill="#F9F9F9" stroke="white"/>
</svg>
