<svg width="463" height="251" viewBox="0 0 463 251" fill="none" xmlns="http://www.w3.org/2000/svg">
<path fill-rule="evenodd" clip-rule="evenodd" d="M0.16799 211.036C6.19865 211.036 11.0874 215.981 11.0874 222.081C11.0874 228.18 6.19865 233.125 0.167991 233.125C0.111894 233.125 0.0558957 233.125 -7.72493e-07 233.124L0 250.796L462.984 250.796L462.984 233.124C462.927 233.125 462.873 233.125 462.816 233.125C456.785 233.125 451.897 228.18 451.897 222.081C451.897 215.981 456.785 211.036 462.816 211.036C462.873 211.036 462.927 211.036 462.984 211.037L462.984 193.024C462.927 193.025 462.873 193.025 462.816 193.025C456.785 193.025 451.897 188.08 451.897 181.98C451.897 175.881 456.785 170.936 462.816 170.936L462.843 170.936L462.897 170.936L462.927 170.936L462.984 170.937L462.984 155.643C446.471 155.643 433.082 142.102 433.082 125.398C433.082 108.694 446.471 95.1531 462.984 95.1531L462.984 80.1992C462.927 80.2002 462.873 80.2005 462.816 80.2005C456.785 80.2005 451.897 75.2556 451.897 69.156C451.897 63.0563 456.785 58.1114 462.816 58.1114C462.873 58.1114 462.927 58.1118 462.984 58.1128L462.984 40.0989C462.954 40.0993 462.927 40.0996 462.897 40.1C462.87 40.1003 462.843 40.1003 462.816 40.1003C456.785 40.1003 451.897 35.1554 451.897 29.0557C451.897 22.9561 456.785 18.0112 462.816 18.0112C462.873 18.0112 462.927 18.0115 462.984 18.0125L462.984 5.60563e-05L-1.09627e-05 7.62939e-05L-1.01753e-05 18.0126C0.0558863 18.0115 0.111884 18.0112 0.167981 18.0112C6.19864 18.0112 11.0874 22.9561 11.0874 29.0558C11.0874 35.1554 6.19864 40.1003 0.167982 40.1003C0.111885 40.1003 0.0558872 40.1 -9.20988e-06 40.0989L-8.42247e-06 58.1128C0.055888 58.1118 0.111886 58.1114 0.167983 58.1114C6.19864 58.1114 11.0874 63.0563 11.0874 69.156C11.0874 75.2556 6.19864 80.2005 0.167984 80.2005C0.111887 80.2005 0.055889 80.2002 -7.45704e-06 80.1992L-6.80338e-06 95.1532C16.5147 95.1532 29.9025 108.694 29.9025 125.398C29.9025 142.102 16.5147 155.643 -4.15927e-06 155.643L-3.49076e-06 170.937C0.055893 170.936 0.111891 170.936 0.167988 170.936C6.19865 170.936 11.0874 175.881 11.0874 181.98C11.0874 188.08 6.19865 193.025 0.167989 193.025C0.111892 193.025 0.0558939 193.025 -2.52533e-06 193.024L-1.73792e-06 211.037C0.0558947 211.036 0.111893 211.036 0.16799 211.036Z" fill="black" fill-opacity="0.8"/>
</svg>
