<svg width="66" height="58" viewBox="0 0 66 58" fill="none" xmlns="http://www.w3.org/2000/svg">
<path d="M33.4699 38.9616C24.7898 38.9616 16.1096 38.9616 7.44025 38.9616C6.57279 39.0286 5.70938 38.7865 4.99598 38.2761C4.28259 37.7657 3.76297 37.0184 3.52502 36.1607C0.782234 28.7175 2.22352 23.2262 8.54808 18.7161C10.5164 17.3157 11.022 15.9594 11.4092 13.6438C12.5816 6.65269 17.0884 2.18667 24.1551 2.23079C28.4574 2.23079 31.8888 4.76709 34.212 8.53829C34.4606 9.0488 34.8794 9.45083 35.3927 9.67141C35.906 9.89199 36.4793 9.91642 37.0086 9.74019C42.8276 8.90215 47.6463 10.5231 50.6581 16.1578C51.4336 17.5187 51.8351 19.0697 51.8197 20.6459C51.8197 23.2923 52.3789 23.9539 54.9712 23.8767C60.1018 23.6891 66.0499 32.2794 62.9413 37.1752C62.6866 37.7289 62.2782 38.1936 61.7676 38.5112C61.257 38.8289 60.6663 38.9855 60.0697 38.9616C51.2065 38.9396 42.3328 38.9616 33.4699 38.9616Z" fill="#ABABAB" stroke="#E8E8E8" stroke-width="0.72" stroke-miterlimit="10"/>
<path d="M14.0996 47.0911C14.0996 47.6505 13.6519 48.1051 13.0996 48.1051C12.5473 48.1051 12.0996 47.6505 12.0996 47.0911C12.0996 46.5301 12.5473 46.0771 13.0996 46.0771C13.6519 46.0771 14.0996 46.5301 14.0996 47.0911Z" fill="#F9F9F9" stroke="white"/>
<path d="M33.9805 47.0911C33.9805 47.6505 33.5338 48.1051 32.9805 48.1051C32.4288 48.1051 31.9805 47.6505 31.9805 47.0911C31.9805 46.5301 32.4288 46.0771 32.9805 46.0771C33.5338 46.0771 33.9805 46.5301 33.9805 47.0911Z" fill="#F9F9F9" stroke="white"/>
<path d="M53.7002 47.0911C53.7002 47.6505 53.2518 48.1051 52.7002 48.1051C52.1485 48.1051 51.7002 47.6505 51.7002 47.0911C51.7002 46.5301 52.1485 46.0771 52.7002 46.0771C53.2518 46.0771 53.7002 46.5301 53.7002 47.0911Z" fill="#F9F9F9" stroke="white"/>
<path d="M23 55.014C23 55.5734 22.5523 56.028 22 56.028C21.4477 56.028 21 55.5734 21 55.014C21 54.4546 21.4477 54 22 54C22.5523 54 23 54.4546 23 55.014Z" fill="#F9F9F9" stroke="white"/>
<path d="M45 55.014C45 55.5733 44.5516 56.028 44 56.028C43.4483 56.028 43 55.5733 43 55.014C43 54.4546 43.4483 54 44 54C44.5516 54 45 54.4546 45 55.014Z" fill="#F9F9F9" stroke="white"/>
</svg>
