<svg width="69" height="62" viewBox="0 0 69 62" fill="none" xmlns="http://www.w3.org/2000/svg">
<g clip-path="url(#clip0_281_6356)">
<mask id="mask0_281_6356" style="mask-type:luminance" maskUnits="userSpaceOnUse" x="0" y="0" width="69" height="62">
<path d="M69 0H0V62H69V0Z" fill="white"/>
</mask>
<g mask="url(#mask0_281_6356)">
<path d="M35.0242 39.581C25.3014 39.581 15.5784 39.581 5.86758 39.581C4.89593 39.6534 3.92877 39.3921 3.12968 38.8417C2.3306 38.2912 1.74855 37.4852 1.48203 36.5601C-1.59026 28.5319 0.0241751 22.6092 7.10851 17.7449C9.30129 16.2344 9.87964 14.7714 10.3134 12.2738C11.6266 4.72153 16.6748 -0.083356 24.5905 -0.0357828C29.4098 -0.0357828 33.2531 2.68776 35.8555 6.76718C36.1357 7.3161 36.6052 7.74833 37.1794 7.98599C37.7537 8.22363 38.3952 8.25122 38.9881 8.06364C45.5062 7.15975 50.9037 8.90802 54.2772 14.9855C55.1461 16.4534 55.5957 18.1262 55.5784 19.8262C55.5784 22.6687 56.205 23.3941 59.1085 23.2989C64.8555 23.1087 71.506 32.3737 68.0362 37.6544C67.7493 38.2507 67.2919 38.7509 66.7201 39.0934C66.1485 39.4358 65.4877 39.6054 64.8195 39.581C54.8677 39.5454 44.9519 39.581 35.0242 39.581Z" fill="#ABABAB"/>
<path d="M39.4217 33.0155C34.9879 32.5636 34.4217 31.7193 35.8072 27.3305C36.4098 25.4515 37.1688 23.6318 38.0362 21.3126C37.4699 20.8963 36.9037 20.1232 36.217 20.0399C34.8435 19.814 33.3976 20.0399 32.024 19.8972C28.9397 19.469 27.265 20.6583 26.253 23.5959C24.8554 27.6873 23.1086 31.6717 21.4338 35.6441C20.229 38.2605 20.9759 38.9741 23.8435 39.0218C28.759 39.105 29.5062 40.211 28.0964 44.6948C26.47 49.9517 24.4819 55.1254 22.7591 60.3464C22.6458 60.89 22.6055 61.4458 22.6387 61.9996C23.215 61.689 23.7358 61.2871 24.1807 60.8103C29.8594 52.7149 35.5141 44.5918 41.1447 36.4408C43.1929 33.4437 43.1446 33.4081 39.4217 33.0155Z" fill="#FFE168"/>
</g>
</g>
<defs>
<clipPath id="clip0_281_6356">
<rect width="69" height="62" fill="white"/>
</clipPath>
</defs>
</svg>
